<svg width="20" height="21" viewBox="0 0 20 21" fill="none" xmlns="http://www.w3.org/2000/svg">
<path d="M10.5859 3.29297H9.41406C9.3099 3.29297 9.25781 3.34505 9.25781 3.44922V17.1992C9.25781 17.3034 9.3099 17.3555 9.41406 17.3555H10.5859C10.6901 17.3555 10.7422 17.3034 10.7422 17.1992V3.44922C10.7422 3.34505 10.6901 3.29297 10.5859 3.29297Z" fill="#898989"/>
<path d="M16.5625 9.58203H3.4375C3.33333 9.58203 3.28125 9.63411 3.28125 9.73828V10.9102C3.28125 11.0143 3.33333 11.0664 3.4375 11.0664H16.5625C16.6667 11.0664 16.7188 11.0143 16.7188 10.9102V9.73828C16.7188 9.63411 16.6667 9.58203 16.5625 9.58203Z" fill="#898989"/>
</svg>
