<svg width="24" height="24" viewBox="0 0 24 24" fill="none" xmlns="http://www.w3.org/2000/svg">
<path fill-rule="evenodd" clip-rule="evenodd" d="M15.9998 9C15.9998 10.0609 15.5783 11.0783 14.8282 11.8284C14.078 12.5786 13.0606 13 11.9998 13C10.9389 13 9.92147 12.5786 9.17133 11.8284C8.42118 11.0783 7.99976 10.0609 7.99976 9C7.99976 7.93913 8.42118 6.92172 9.17133 6.17157C9.92147 5.42143 10.9389 5 11.9998 5C13.0606 5 14.078 5.42143 14.8282 6.17157C15.5783 6.92172 15.9998 7.93913 15.9998 9ZM13.9998 9C13.9998 9.53043 13.789 10.0391 13.414 10.4142C13.0389 10.7893 12.5302 11 11.9998 11C11.4693 11 10.9606 10.7893 10.5855 10.4142C10.2105 10.0391 9.99976 9.53043 9.99976 9C9.99976 8.46957 10.2105 7.96086 10.5855 7.58579C10.9606 7.21071 11.4693 7 11.9998 7C12.5302 7 13.0389 7.21071 13.414 7.58579C13.789 7.96086 13.9998 8.46957 13.9998 9Z" fill="white"/>
<path fill-rule="evenodd" clip-rule="evenodd" d="M11.9999 1C5.92488 1 0.999878 5.925 0.999878 12C0.999878 18.075 5.92488 23 11.9999 23C18.0749 23 22.9999 18.075 22.9999 12C22.9999 5.925 18.0749 1 11.9999 1ZM2.99988 12C2.99988 14.09 3.71288 16.014 4.90788 17.542C5.74711 16.4399 6.82978 15.5467 8.07131 14.9323C9.31284 14.3179 10.6796 13.9988 12.0649 14C13.4322 13.9987 14.7818 14.3095 16.0108 14.9088C17.2398 15.508 18.3158 16.3799 19.1569 17.458C20.0233 16.3216 20.6067 14.9952 20.8588 13.5886C21.1108 12.182 21.0243 10.7355 20.6064 9.36898C20.1884 8.00243 19.4511 6.75505 18.4554 5.73004C17.4596 4.70503 16.2341 3.93186 14.8803 3.47451C13.5264 3.01716 12.0831 2.88877 10.6697 3.09997C9.2564 3.31117 7.91367 3.85589 6.75265 4.68905C5.59162 5.52222 4.64569 6.61987 3.99311 7.8912C3.34053 9.16252 3.00006 10.571 2.99988 12ZM11.9999 21C9.93383 21.0031 7.93014 20.2923 6.32788 18.988C6.97281 18.0647 7.83122 17.3109 8.83007 16.7907C9.82893 16.2705 10.9387 15.9992 12.0649 16C13.177 15.9991 14.2734 16.2636 15.2628 16.7714C16.2522 17.2793 17.1062 18.0159 17.7539 18.92C16.1392 20.2667 14.1025 21.0029 11.9999 21Z" fill="white"/>
</svg>
