<svg width="25" height="22" viewBox="0 0 25 22" fill="none" xmlns="http://www.w3.org/2000/svg">
<path d="M24.2705 4.0144C24.1635 3.88659 24.0294 3.78369 23.8777 3.713C23.726 3.64232 23.5604 3.60559 23.3927 3.60543H6.50525L5.96456 0.894877C5.91349 0.645833 5.77819 0.421461 5.58099 0.258776C5.38378 0.0960906 5.13644 0.00481241 4.87978 0H1.11012C0.815696 0 0.533333 0.115781 0.325146 0.321873C0.116958 0.527964 0 0.807485 0 1.09894C0 1.3904 0.116958 1.66992 0.325146 1.87601C0.533333 2.0821 0.815696 2.19789 1.11012 2.19789H3.95046L6.61001 15.4638C6.66108 15.7129 6.79637 15.9372 6.99358 16.0999C7.19079 16.2626 7.43812 16.3539 7.69478 16.3587H21.0686C21.3228 16.3595 21.5694 16.2734 21.767 16.1152C21.9646 15.9569 22.1011 15.736 22.1533 15.4897L24.4766 4.93437C24.5279 4.77672 24.5358 4.6084 24.4996 4.44671C24.4634 4.28503 24.3843 4.13581 24.2705 4.0144Z" fill="white"/>
<path d="M10.1956 21.7507C11.3219 21.7507 12.235 20.8468 12.235 19.7318C12.235 18.6168 11.3219 17.7129 10.1956 17.7129C9.06922 17.7129 8.15613 18.6168 8.15613 19.7318C8.15613 20.8468 9.06922 21.7507 10.1956 21.7507Z" fill="white"/>
<path d="M18.488 21.7507C19.6144 21.7507 20.5275 20.8468 20.5275 19.7318C20.5275 18.6168 19.6144 17.7129 18.488 17.7129C17.3617 17.7129 16.4486 18.6168 16.4486 19.7318C16.4486 20.8468 17.3617 21.7507 18.488 21.7507Z" fill="white"/>
</svg>
