<svg width="8" height="5" viewBox="0 0 8 5" fill="none" xmlns="http://www.w3.org/2000/svg">
<path d="M3.56337 4.80445L0.180645 1.14072C0.0649805 1.01547 0 0.845586 0 0.66845C0 0.491313 0.0649805 0.321432 0.180645 0.196177C0.296311 0.0709228 0.453187 0.000555627 0.616762 0.000555625C0.780337 0.000555623 0.937213 0.0709228 1.05288 0.196177L3.99897 3.38874L6.94712 0.195622C7.06279 0.0703672 7.21966 0 7.38324 0C7.54681 0 7.70369 0.0703672 7.81935 0.195622C7.93502 0.320876 8 0.490758 8 0.667894C8 0.845031 7.93502 1.01491 7.81935 1.14017L4.43714 4.80445C4.32115 4.92968 4.16405 5 4.00026 5C3.83647 5 3.67936 4.92968 3.56337 4.80445Z" fill="#474338"/>
</svg>
