<svg width="38" height="38" viewBox="0 0 38 38" fill="none" xmlns="http://www.w3.org/2000/svg">
<path d="M19.0002 21.3749C14.5217 21.3749 11.135 17.9367 11.135 13.4583L11.0835 5.54159L15.0418 8.70825L19.0002 3.95825L22.9585 8.70825L26.9168 5.54159V13.4583C26.9168 17.9367 23.4794 21.3749 19.0002 21.3749Z" stroke="white" stroke-width="2" stroke-miterlimit="10" stroke-linecap="round" stroke-linejoin="round"/>
<path d="M18.5932 34.2901C19.8298 33.0535 18.3264 29.544 15.2349 26.4526C12.1427 23.3611 8.63402 21.8569 7.39743 23.0943C6.16085 24.3309 7.66423 27.8396 10.7565 30.9318C13.8479 34.0225 17.3566 35.5266 18.594 34.2901H18.5932Z" stroke="white" stroke-width="2" stroke-miterlimit="10" stroke-linecap="round" stroke-linejoin="round"/>
<path d="M19.6565 34.0179C20.8931 35.2553 24.4017 33.7511 27.494 30.6596C30.5854 27.5682 32.0888 24.0587 30.8522 22.8221C29.6156 21.5856 26.107 23.0897 23.0147 26.1812C19.9233 29.2726 18.4199 32.7813 19.6565 34.0187V34.0179Z" stroke="white" stroke-width="2" stroke-miterlimit="10" stroke-linecap="round" stroke-linejoin="round"/>
</svg>
