<svg width="184" height="30" viewBox="0 0 184 30" fill="none" xmlns="http://www.w3.org/2000/svg">
<path d="M29.6583 21.9835L31.0597 21.7062L30.3906 18.3669H26.976V19.7894H28.2177C27.3398 22.0907 25.8517 24.1094 23.9133 25.6289C21.9748 27.1485 19.6592 28.1114 17.2148 28.4144C14.7705 28.7174 12.2898 28.349 10.039 27.3487C7.78822 26.3485 5.85232 24.7542 4.43909 22.7369C4.79028 22.3725 5.02652 21.9129 5.11842 21.4152C5.21032 20.9175 5.15381 20.4038 4.95593 19.938C4.75805 19.4722 4.42754 19.0749 4.00554 18.7956C3.58354 18.5162 3.0887 18.3672 2.58261 18.3669H2.41083C1.74396 18.4124 1.12069 18.7146 0.672017 19.2101C0.223345 19.7055 -0.0157826 20.3556 0.00490017 21.0237C0.0255829 21.6918 0.304465 22.3258 0.782925 22.7926C1.26138 23.2593 1.90216 23.5224 2.57056 23.5265C2.78083 23.5275 2.99041 23.5022 3.19441 23.4512C4.72092 25.6767 6.82067 27.4481 9.27146 28.578C11.7222 29.7079 14.4329 30.1543 17.1166 29.8699C19.8003 29.5854 22.3572 28.5808 24.5167 26.9623C26.6762 25.3437 28.3579 23.1715 29.384 20.6755L29.6583 21.9835ZM3.63442 21.4229C3.54077 21.6231 3.3922 21.7925 3.20598 21.9115C3.01977 22.0305 2.80359 22.0941 2.58261 22.095C2.50982 22.0941 2.43723 22.087 2.36562 22.0739C2.10015 22.0239 1.86051 21.8827 1.68823 21.6746C1.51595 21.4666 1.42188 21.2048 1.42231 20.9347C1.42133 20.7344 1.47443 20.5376 1.57601 20.3651C1.67656 20.1866 1.82279 20.0381 1.99969 19.9348C2.17658 19.8316 2.37777 19.7772 2.58261 19.7774C2.68447 19.7785 2.78576 19.7926 2.88399 19.8196C3.12733 19.8879 3.34173 20.0337 3.49459 20.235C3.64745 20.4363 3.73041 20.6819 3.73086 20.9347C3.73302 21.1024 3.70017 21.2686 3.63442 21.4229Z" fill="white"/>
<path d="M0.919199 11.5682H4.08064V10.1487H2.84198C3.72187 7.84915 5.21117 5.8325 7.15016 4.31507C9.08914 2.79764 11.4046 1.8367 13.8483 1.53531C16.2919 1.23392 18.7715 1.60345 21.0211 2.60428C23.2707 3.60511 25.2053 5.19946 26.6176 7.21633C26.1524 7.69478 25.8928 8.33619 25.8943 9.0035C25.8943 9.68797 26.166 10.3445 26.6497 10.8287C27.1334 11.313 27.7896 11.5855 28.4741 11.5863H28.6308C29.1156 11.5548 29.5821 11.3888 29.9779 11.1071C30.4219 10.7882 30.7531 10.3366 30.9241 9.81748C31.0951 9.29831 31.097 8.73828 30.9295 8.21798C30.762 7.69769 30.4337 7.24395 29.9919 6.92206C29.5502 6.60018 29.0177 6.42674 28.4711 6.42672C28.2608 6.42577 28.0512 6.45108 27.8472 6.50207C26.3207 4.27657 24.221 2.50514 21.7702 1.37522C19.3194 0.24531 16.6087 -0.20105 13.925 0.0833772C11.2413 0.367805 8.68446 1.37244 6.52496 2.99097C4.36546 4.6095 2.68367 6.78172 1.65757 9.27775L1.39537 7.96073L0 8.21992L0.666043 11.5682H0.919199ZM27.4253 8.50321C27.5164 8.30081 27.6636 8.12878 27.8495 8.00752C28.0354 7.88627 28.2521 7.82087 28.4741 7.81908C28.547 7.81833 28.6197 7.82541 28.6911 7.84018C28.956 7.89003 29.1953 8.03083 29.3675 8.23826C29.5397 8.4457 29.6341 8.70676 29.6344 8.97637C29.6354 9.17717 29.5834 9.37468 29.4837 9.54899C29.3822 9.72727 29.2353 9.87554 29.058 9.97875C28.8807 10.082 28.6792 10.1364 28.4741 10.1367C28.372 10.136 28.2705 10.1208 28.1727 10.0915C28.0118 10.0474 27.8623 9.96904 27.7346 9.86168C27.6069 9.75433 27.504 9.62056 27.4329 9.4696C27.3619 9.31864 27.3244 9.15408 27.3231 8.98725C27.3218 8.82041 27.3566 8.65527 27.4253 8.50321Z" fill="white"/>
<path d="M15.5101 9.59099C14.782 9.59133 14.0545 9.55008 13.3311 9.46743C13.1934 9.9255 13.0787 10.3902 12.9876 10.8598C13.8242 10.9657 14.6668 11.0181 15.5101 11.0165C16.3554 11.0182 17.2 10.9658 18.0387 10.8598C18.2737 10.8327 18.5058 10.7995 18.7378 10.7603C19.217 10.685 19.6842 10.5886 20.1392 10.477C20.3743 10.4198 20.6064 10.3565 20.8324 10.2932C21.6426 10.0602 22.4279 9.74829 23.1771 9.36195C23.6749 10.0417 24.0803 10.7846 24.3826 11.571H25.8895C25.1721 9.3823 23.7823 7.47576 21.9181 6.12294C20.0539 4.77013 17.8104 4.04002 15.5071 4.03662C13.4939 4.03808 11.5204 4.59576 9.80417 5.64809C8.08797 6.70043 6.69592 8.20651 5.78167 10.0001C4.86742 11.7936 4.46653 13.8049 4.62324 15.812C4.77996 17.819 5.48819 19.7437 6.66975 21.3736C7.85131 23.0036 9.46026 24.2753 11.319 25.0485C13.1777 25.8217 15.214 26.0663 17.2029 25.7552C19.1919 25.4442 21.0562 24.5897 22.5902 23.2859C24.1241 21.9822 25.268 20.2799 25.8955 18.3671H24.3887C24.0863 19.1535 23.681 19.8964 23.1832 20.5762C22.4333 20.1911 21.6481 19.8792 20.8384 19.6449C20.6124 19.5786 20.3804 19.5183 20.1453 19.4581C20.1905 19.229 20.2327 18.9909 20.2688 18.7559C20.4702 17.5052 20.571 16.2404 20.5702 14.9736C20.571 13.7048 20.4702 12.438 20.2688 11.1853C19.8138 11.2968 19.3466 11.3932 18.8674 11.4686C19.0484 12.6281 19.1381 13.8 19.1357 14.9736C19.138 16.1461 19.0483 17.3171 18.8674 18.4756C18.8283 18.7167 18.7861 18.9518 18.7439 19.1748C18.5118 19.1356 18.2798 19.1024 18.0447 19.0753C16.3665 18.8664 14.6688 18.8664 12.9906 19.0753C13.0931 19.5786 13.2076 20.0427 13.3372 20.4677C14.0604 20.3834 14.788 20.3422 15.5161 20.3441C16.2452 20.3426 16.9737 20.3829 17.6981 20.4647C17.9362 20.4918 18.1713 20.5249 18.4033 20.5611C18.8916 20.6375 19.3617 20.7309 19.8138 20.8414C20.0518 20.8986 20.2809 20.965 20.5069 21.0282C21.0957 21.2049 21.67 21.4265 22.2248 21.6913C21.1587 22.7602 19.8526 23.5589 18.4154 24.0209C18.9292 23.2469 19.3347 22.4063 19.6209 21.5225C19.1658 21.411 18.6896 21.3206 18.1984 21.2482C17.4901 23.2705 16.4835 24.473 15.5312 24.473C14.5788 24.473 13.5753 23.2675 12.867 21.2482C12.7917 21.0282 12.7163 20.7992 12.647 20.5611C12.5204 20.1301 12.4059 19.657 12.3095 19.1748C12.2643 18.9518 12.2221 18.7167 12.1859 18.4756C11.8283 16.1536 11.8283 13.7906 12.1859 11.4686C12.2221 11.2275 12.2643 10.9954 12.3095 10.7694C12.4059 10.2781 12.5204 9.81401 12.647 9.38304C12.7163 9.14194 12.7887 8.91591 12.867 8.6959C13.5753 6.67367 14.5819 5.47419 15.5312 5.47117C16.4805 5.47117 17.4871 6.67668 18.1954 8.6959C18.2737 8.91591 18.3461 9.14496 18.4154 9.38304C18.1833 9.42222 17.9482 9.45236 17.7102 9.47647C16.9796 9.55696 16.245 9.5952 15.5101 9.59099ZM6.01071 14.9645C6.00706 12.9492 6.6469 10.9853 7.83705 9.35893C8.58652 9.74477 9.3718 10.0567 10.1818 10.2902C10.4108 10.3565 10.6399 10.4198 10.8779 10.477C10.8297 10.7091 10.7875 10.9412 10.7544 11.1762C10.5515 12.4288 10.4507 13.6957 10.453 14.9645C10.4506 16.2324 10.5514 17.4983 10.7544 18.7498C10.7875 18.9879 10.8297 19.22 10.8779 19.449C10.6399 19.5063 10.4108 19.5666 10.1818 19.6359C9.37162 19.8689 8.58629 20.1808 7.83705 20.5671C6.64694 18.9419 6.00707 16.9789 6.01071 14.9645ZM12.6139 24.0058C11.177 23.544 9.8704 22.7476 8.80146 21.6822C9.35799 21.416 9.93435 21.1933 10.5253 21.0162C10.7484 20.9469 10.9774 20.8866 11.2155 20.8293C11.2788 21.0614 11.3511 21.2904 11.4234 21.5104C11.7052 22.3943 12.1057 23.2358 12.6139 24.0119V24.0058ZM11.4234 8.42165C11.3511 8.63864 11.2788 8.86769 11.2155 9.09975C10.9774 9.04249 10.7484 8.9792 10.5253 8.9129C9.93443 8.73678 9.35808 8.51511 8.80146 8.24987C9.87009 7.18336 11.1768 6.38593 12.6139 5.92324C12.1048 6.69773 11.7042 7.53836 11.4234 8.42165ZM22.2188 8.24987C21.664 8.51461 21.0897 8.73628 20.5009 8.9129C20.2749 8.9792 20.0458 9.04249 19.8077 9.09975C19.7444 8.86769 19.6721 8.63864 19.5998 8.42165C19.3136 7.53688 18.908 6.69531 18.3943 5.92023C19.8358 6.37947 21.1469 7.17607 22.2188 8.24384V8.24987Z" fill="white"/>
<path d="M181.101 8.1836L177.189 14.4492C175.291 11.3732 174.005 9.28162 173.332 8.17456H170.279C173.058 12.3657 174.929 15.1846 175.893 16.6312V21.7395H178.416V16.6161C181.201 12.4129 183.062 9.6061 184 8.19566L181.101 8.1836Z" fill="white"/>
<path d="M153.849 10.1936H161.643C157.755 15.2166 155.157 18.5669 153.849 20.2445V21.7514H164.907V19.7322H157.11C160.998 14.7093 163.597 11.3579 164.907 9.67827V8.17139H153.849V10.1936Z" fill="white"/>
<path d="M136.651 8.18384V21.7398H139.156H147.682V19.7326H139.156V15.8328H146.802V13.8226H139.156V10.194H147.682V8.18384H139.156H136.651Z" fill="white"/>
<path d="M117.249 8.18384V10.194H122.64V16.9599V21.7398H125.166V10.194H130.558V9.38633V8.18384H128.451H117.249Z" fill="white"/>
<path d="M100.93 8.18384V21.7398H103.428V16.2246H111.074V14.2174H103.428V10.194H111.96V8.18384H103.428H100.93Z" fill="white"/>
<path d="M88.4882 8.18352H86.1947C82.9198 14.9725 80.7418 19.4912 79.6609 21.7394H82.2768C82.751 20.7067 83.2021 19.7182 83.63 18.7739H90.9685C91.5261 20.0095 91.9691 20.995 92.3067 21.7394H95.1004C92.1931 15.7119 90.0112 11.1913 88.5545 8.17749L88.4882 8.18352ZM88.7896 16.8873H84.498C85.587 14.5064 86.5293 12.447 87.3249 10.7091C88.4139 13.108 89.3471 15.1674 90.1247 16.8873H88.7896Z" fill="white"/>
<path d="M72.8579 15.3533C73.3103 14.9953 73.6722 14.5361 73.9146 14.0126C74.157 13.4891 74.273 12.916 74.2533 12.3395C74.274 11.7628 74.1584 11.1894 73.9159 10.6658C73.6735 10.1421 73.311 9.68304 72.8579 9.32572C71.9076 8.57228 70.5343 8.19556 68.7381 8.19556H62.2163V21.7575H64.7177V16.4683H68.0118C69.9105 19.0542 71.1983 20.8112 71.8754 21.7394H74.8892L70.7513 16.2574C71.5139 16.1228 72.235 15.8133 72.8579 15.3533ZM66.752 14.4491H64.7177V10.1937H68.7381C69.4806 10.1519 70.2196 10.3223 70.8688 10.6849C71.3782 11.0285 71.6283 11.5891 71.6283 12.3274C71.6283 13.0658 71.3782 13.6264 70.8688 13.9699C70.2187 14.3293 69.4795 14.4956 68.7381 14.4491H66.752Z" fill="white"/>
<path d="M48.5527 19.648L48.6853 19.6118C48.6431 19.6269 48.5979 19.6359 48.5527 19.648Z" fill="white"/>
<path d="M48.2205 19.7171L48.3681 19.6899L48.2205 19.7171Z" fill="white"/>
<path d="M48.0742 19.7414L48.2279 19.7173L48.0742 19.7414Z" fill="white"/>
<path d="M47.9194 19.7595L48.0762 19.7415C48.0243 19.7506 47.972 19.7567 47.9194 19.7595Z" fill="white"/>
<path d="M42.7685 18.0293C43.7873 18.7818 44.9446 19.3256 46.1741 19.6297L46.3609 19.6718L46.4694 19.696C46.5297 19.696 46.59 19.7171 46.6532 19.7231C46.6939 19.7323 46.7352 19.7383 46.7768 19.7412C46.8763 19.7412 46.9787 19.7653 47.0782 19.7713C47.1776 19.7773 47.3133 19.7713 47.4308 19.7713H47.5935H47.7261H47.7834H47.91C47.9625 19.7684 48.0149 19.7624 48.0667 19.7532L48.2204 19.7291L48.3681 19.702L48.5429 19.6598C48.5881 19.6598 48.6333 19.6387 48.6755 19.6236L48.7568 19.5995L48.8473 19.5694C49.2798 19.4271 49.6868 19.2165 50.0528 18.9455C50.3873 18.7225 50.7128 18.4904 51.0503 18.2644C51.4092 18.0389 51.7976 17.8644 52.2046 17.746H52.2378L52.4065 17.7219H52.5391H52.5723C52.6154 17.7173 52.6588 17.7173 52.7019 17.7219H52.732C52.7917 17.7262 52.8492 17.7459 52.8989 17.7792C52.9486 17.8125 52.9887 17.8582 53.0153 17.9118C53.0348 17.9655 53.0429 18.0227 53.0393 18.0798C53.0357 18.1368 53.0203 18.1925 52.9942 18.2433C52.9385 18.3415 52.8649 18.4284 52.7772 18.4995C52.7133 18.555 52.6458 18.6063 52.5753 18.6532L52.509 18.6984L52.4849 18.7165L52.3462 18.8099L52.3071 18.84L51.6229 19.3433C51.2733 19.6266 50.9991 19.916 51.0835 20.0938C51.1196 20.1691 51.2191 20.2053 51.3607 20.2053C51.8851 20.2053 53.0093 19.705 53.8501 18.7557C54.7784 17.7039 55.4685 16.4351 55.9808 16.4351C56.0225 16.435 56.0637 16.4443 56.1014 16.4622L56.1406 16.4833C56.1816 16.5344 56.203 16.5986 56.2009 16.6641C56.209 16.7039 56.209 16.7449 56.2009 16.7847C56.1647 16.9082 56.1195 17.0318 56.0773 17.1523C55.7881 18.0508 55.323 18.8827 54.709 19.5995L54.6608 19.6568C53.6086 20.8695 52.1785 21.6923 50.6013 21.9924C50.1581 22.076 49.7081 22.1184 49.2571 22.119C48.0821 22.1239 46.924 21.8391 45.8853 21.2898C44.8466 20.7405 43.9593 19.9436 43.3019 18.9696C43.2658 18.9214 43.2356 18.8702 43.2025 18.822C43.0699 18.617 42.9463 18.4061 42.8288 18.1891C42.7986 18.1348 42.7745 18.0776 42.7444 18.0143H42.7625L42.7685 18.0293Z" fill="#F7941D"/>
<path d="M49.2438 7.79787C48.1011 7.79844 46.9752 8.07212 45.9597 8.59609C44.9442 9.12006 44.0687 9.87915 43.4061 10.8101C42.7435 11.741 42.313 12.8169 42.1505 13.9479C41.988 15.079 42.0982 16.2325 42.4719 17.3123C43.4441 18.0293 44.5232 18.5887 45.6695 18.9699H45.6906L45.7478 18.988L45.9076 19.0362L46.0854 19.0844H46.1125H46.1667L46.441 19.1447H46.5073C46.7062 19.1843 46.9076 19.2105 47.1101 19.2231C47.2186 19.2231 47.324 19.2231 47.4295 19.2231C47.7036 19.2233 47.9772 19.197 48.2462 19.1447C47.5367 18.9812 46.8796 18.6418 46.3354 18.1579C45.7913 17.674 45.3776 17.061 45.1324 16.3753C44.8871 15.6897 44.8182 14.9533 44.932 14.2341C45.0458 13.5149 45.3387 12.8358 45.7836 12.2593C46.2285 11.6828 46.8113 11.2275 47.4782 10.9352C48.1452 10.6429 48.8749 10.523 49.6003 10.5865C50.3258 10.65 51.0236 10.8949 51.6296 11.2987C52.2356 11.7025 52.7303 12.2521 53.0683 12.8972H56.1212C55.6763 11.4203 54.7667 10.1264 53.5277 9.20767C52.2886 8.28899 50.7863 7.79456 49.2438 7.79787Z" fill="white"/>
</svg>
