<svg width="18" height="16" viewBox="0 0 18 16" fill="none" xmlns="http://www.w3.org/2000/svg">
<path d="M9.41511 8.41021L3.67161 14.7714C3.27463 15.2111 2.63271 15.2111 2.23996 14.7714L1.28553 13.7144C0.888549 13.2747 0.888549 12.5637 1.28553 12.1287L5.35665 7.61973L1.28553 3.11074C0.888549 2.67106 0.888549 1.9601 1.28553 1.5251L2.23574 0.458662C2.63271 0.0189878 3.27463 0.0189878 3.66739 0.458662L9.41089 6.8199C9.81209 7.25957 9.81209 7.97054 9.41511 8.41021ZM17.5236 6.8199L11.7801 0.458662C11.3831 0.0189878 10.7412 0.0189878 10.3484 0.458662L9.394 1.51575C8.99702 1.95542 8.99702 2.66639 9.394 3.10138L13.4651 7.61038L9.394 12.1194C8.99702 12.559 8.99702 13.27 9.394 13.705L10.3484 14.7621C10.7454 15.2018 11.3873 15.2018 11.7801 14.7621L17.5236 8.40086C17.9206 7.97054 17.9206 7.25957 17.5236 6.8199Z" fill="black" fill-opacity="0.7"/>
</svg>
