<svg width="17" height="16" viewBox="0 0 17 16" fill="none" xmlns="http://www.w3.org/2000/svg">
<path d="M8.49772 6.81992L14.2412 0.458663C14.6382 0.0189875 15.2801 0.0189875 15.6729 0.458663L16.6273 1.51575C17.0243 1.95543 17.0243 2.66639 16.6273 3.10139L12.5604 7.61508L16.6315 12.1241C17.0285 12.5638 17.0285 13.2747 16.6315 13.7097L15.6771 14.7715C15.2801 15.2112 14.6382 15.2112 14.2454 14.7715L8.50194 8.41024C8.10074 7.97056 8.10074 7.2596 8.49772 6.81992ZM0.389248 8.41024L6.13275 14.7715C6.52973 15.2112 7.17165 15.2112 7.5644 14.7715L8.51884 13.7144C8.91581 13.2747 8.91581 12.5638 8.51884 12.1288L4.45193 7.61508L8.52306 3.10607C8.92004 2.66639 8.92004 1.95543 8.52306 1.52043L7.56863 0.458663C7.17165 0.0189875 6.52973 0.0189875 6.13697 0.458663L0.393471 6.81992C-0.00772914 7.2596 -0.00772907 7.97056 0.389248 8.41024Z" fill="black" fill-opacity="0.7"/>
</svg>
